<svg id="Layer_5" enable-background="new 0 0 64 64" height="512" viewBox="0 0 64 64" width="512" xmlns="http://www.w3.org/2000/svg" xmlns:xlink="http://www.w3.org/1999/xlink"><linearGradient id="SVGID_1_" gradientUnits="userSpaceOnUse" x1="32" x2="32" y1="63" y2="1.039"><stop offset="0" stop-color="#9f2fff"/><stop offset="1" stop-color="#0bb1d3"/></linearGradient><path d="m58.99 50.371-.688-.138c.45-1.013.698-2.107.698-3.233v-6c0-1.401-.364-2.718-1-3.864v-9.87l-2.652-.833c-.588-2.475-1.563-4.825-2.905-7.001l1.289-2.469-6.695-6.695-2.469 1.289c-2.176-1.342-4.526-2.317-7.001-2.905l-.833-2.652h-9.469l-.833 2.653c-1.612.383-3.167.949-4.663 1.656.146-.416.231-.855.231-1.309 0-1.448-.791-2.765-2.027-3.466-.245-2.099-2.088-3.742-4.326-3.516-1.458-1.306-3.836-1.306-5.294 0-2.239-.229-4.081 1.417-4.326 3.516-1.236.701-2.027 2.018-2.027 3.466 0 1.099.453 2.133 1.223 2.877-.141.347-.223.725-.223 1.123 0 1.654 1.346 3 3 3h.424c.297.677.749 1.263 1.297 1.744-.252.436-.649.768-1.095.897l-3.616.73c-2.323.47-4.01 2.531-4.01 4.902v5.727h5v6.734l2.653.832c.587 2.476 1.563 4.826 2.904 7.002l-1.29 2.469 6.696 6.695 2.469-1.29c2.175 1.342 4.525 2.317 7.001 2.905l.833 2.653h9.469l.833-2.653c.491-.117.978-.256 1.462-.404-.008.11-.03.217-.03.329v7.728h24v-7.728c0-2.37-1.687-4.431-4.01-4.901zm-3.539-.71c-.502-.144-.914-.48-1.171-.918.548-.481.999-1.067 1.296-1.743h.424c.352 0 .686-.072 1-.184v.184c0 .997-.257 1.959-.723 2.827zm-9.729.163c-.466-.867-.722-1.828-.722-2.824v-.184c.314.112.648.184 1 .184h.424c.297.677.749 1.263 1.297 1.744-.252.436-.649.768-1.094.897zm-13.722-.824c-9.374 0-17-7.626-17-17 0-.669.053-1.337.131-2h8.067l-.546 1.364 4.864 3.198-2.246 5.17 2.067 1.538 4.547-3.737 4.548 3.737 2.066-1.538-2.246-5.17 4.864-3.198-.947-2.362-5.526-.002-1.398-5h-2.725l-1.377 4.995-4.143.006v-4.728c0-2.371-1.687-4.432-4.01-4.901l-.3-.06c3.098-2.758 7.128-4.312 11.31-4.312 9.374 0 17 7.626 17 17 0 .427-.022.853-.053 1.277-3.418.91-5.947 4.023-5.947 7.723v3.943c-3.071 2.612-6.955 4.057-11 4.057zm3.544-11.049-3.66-3.009-3.66 3.009 1.797-4.136-4.281-2.815 4.927-.007 1.22-4.423 1.238 4.43 4.902.001-4.28 2.814zm21.456 3.049v.184c-.314-.112-.648-.184-1-.184v-1h-1c-1.153 0-2.309-.272-3.342-.789l-.658-.329-.658.329c-1.033.517-2.189.789-3.342.789h-1v1c-.352 0-.686.072-1 .184v-.184c0-3.309 2.691-6 6-6s6 2.691 6 6zm-1 2c.551 0 1 .448 1 1s-.449 1-1 1zm-8 2v-3.054c1.036-.111 2.055-.393 3-.832.945.439 1.964.721 3 .832v3.054c0 1.654-1.346 3-3 3s-3-1.346-3-3zm-2 0c-.551 0-1-.448-1-1s.449-1 1-1zm7.232 7h-4.464l-.259-1.148c.384-.309.704-.691.952-1.12.487.16.998.268 1.539.268s1.052-.108 1.541-.268c.246.423.566.8.953 1.11zm-.451 2-1.58 7h-.401l-1.58-7zm-25.359-43.52.572-.121.74-2.359h6.531l.74 2.359.572.121c2.635.558 5.124 1.59 7.396 3.068l.49.319 2.196-1.147 4.619 4.619-1.147 2.196.319.49c1.479 2.272 2.511 4.761 3.068 7.396l.121.572 2.361.741v6.031c-1.371-1.102-3.109-1.765-5-1.765-.01 0-.019.001-.029.001.018-.333.029-.667.029-1.001 0-10.477-8.523-19-19-19-5.159 0-10.099 2.131-13.671 5.837l-.879-.177c-.502-.143-.914-.479-1.17-.917.548-.481.999-1.067 1.296-1.743h.424c1.654 0 3-1.346 3-3 0-.009-.003-.018-.003-.028 2.008-1.164 4.161-2.013 6.425-2.492zm-17.422 3.52v-2c0-.486.349-.893.809-.982 1.38.643 2.905.982 4.427.982h.764v2c0 1.654-1.346 3-3 3s-3-1.346-3-3zm8-2c.551 0 1 .449 1 1s-.449 1-1 1zm-11 1c0-.551.449-1 1-1v2c-.551 0-1-.449-1-1zm1.78-3h-.78c-.523 0-1.007.146-1.435.382-.354-.368-.565-.858-.565-1.382 0-.842.542-1.597 1.347-1.877l.718-.25-.049-.76-.016-.113c0-1.103.897-2 2-2 .139 0 .288.021.468.064l.605.146.398-.479c.772-.93 2.283-.93 3.056 0l.398.479.605-.146c.182-.043.331-.064.47-.064 1.103 0 2 .897 2 1.965l-.065.907.718.25c.805.281 1.347 1.036 1.347 1.878 0 .524-.211 1.014-.565 1.382-.428-.236-.912-.382-1.435-.382h-1-1.764c-1.308 0-2.618-.309-3.789-.895l-.211-.105h-.236c-.883 0-1.67.391-2.22 1zm4.22 9c.541 0 1.052-.108 1.541-.268.082.141.17.277.269.406l-1.81 2.261-1.807-2.259c.098-.13.186-.267.268-.408.488.16.999.268 1.539.268zm-10 5.273c0-1.422 1.012-2.659 2.406-2.941l3.692-.749c.183-.052.36-.119.531-.195l3.371 4.213 3.378-4.222c.192.087.391.164.6.223l3.617.73c1.393.282 2.405 1.519 2.405 2.941v3.727h-20zm33.578 29.247-.572.121-.74 2.359h-6.531l-.741-2.359-.572-.121c-2.636-.558-5.125-1.59-7.396-3.068l-.49-.319-2.196 1.147-4.619-4.617 1.147-2.196-.319-.49c-1.479-2.272-2.511-4.762-3.068-7.397l-.121-.572-2.36-.742v-5.266h5.117c-.069.664-.117 1.332-.117 2 0 10.477 8.523 19 19 19 3.983 0 7.827-1.254 11.034-3.546.055.966.275 1.903.664 2.779l-.688.139c-1.346.272-2.464 1.087-3.179 2.178-1.057.403-2.147.736-3.253.97zm4.422 1.752c0-1.422 1.012-2.659 2.406-2.94l3.238-.657 2.105 9.325h-7.749zm20 5.728h-7.749l2.104-9.321 3.239.653c1.394.281 2.406 1.519 2.406 2.94zm-53.293-7.293-2.293 2.293h12.586v2h-12.586l2.293 2.293-1.414 1.414-4.707-4.707 4.707-4.707zm14.293 2.293v2h-2v-2zm24-50h12.586l-2.293-2.293 1.414-1.414 4.707 4.707-4.707 4.707-1.414-1.414 2.293-2.293h-12.586zm-2 0v2h-2v-2z" fill="url(#SVGID_1_)"/></svg>