<svg id="_x33_0" enable-background="new 0 0 64 64" height="512" viewBox="0 0 64 64" width="512" xmlns="http://www.w3.org/2000/svg" xmlns:xlink="http://www.w3.org/1999/xlink"><linearGradient id="SVGID_1_" gradientUnits="userSpaceOnUse" x1="32" x2="32" y1="63" y2="1"><stop offset="0" stop-color="#9f2fff"/><stop offset="1" stop-color="#0bb1d3"/></linearGradient><path d="m29 17h3c.853 0 1.619-.474 2-1.236l.105-.211 1.789.895-.105.211c-.722 1.444-2.174 2.341-3.789 2.341h-3zm6 40h-6v2h6zm0-4h-6v2h6zm0-4h-6v2h6zm28-2v14c0 1.103-.897 2-2 2h-10c-1.103 0-2-.897-2-2v-14c0-1.103.897-2 2-2h2.586l-7.143-7.143c-4.172 1.893-8.729 2.974-13.443 3.109v4.034h4c1.103 0 2 .897 2 2v14c0 1.103-.897 2-2 2h-10c-1.103 0-2-.897-2-2v-14c0-1.103.897-2 2-2h4v-4.034c-4.714-.135-9.271-1.216-13.443-3.109l-7.143 7.143h2.586c1.103 0 2 .897 2 2v14c0 1.103-.897 2-2 2h-10c-1.103 0-2-.897-2-2v-14c0-1.103.897-2 2-2h4.586l8.072-8.072c-5.896-3.118-10.894-7.894-14.245-13.926l-.558-1.002.558-1.002c4.522-8.139 12.235-14.208 21.196-16.708 1.482-1.992 3.846-3.29 6.514-3.29h5.754c2.668 0 5.032 1.298 6.514 3.29 8.961 2.5 16.674 8.568 21.196 16.708l.558 1.002-.558 1.002c-3.351 6.032-8.349 10.808-14.245 13.926l8.072 8.072h4.586c1.103 0 2 .897 2 2zm-50 0h-10v14h10.002zm24 0h-10v14h10.002zm7.002-39.73c4.417 3.591 6.998 8.946 6.998 14.73 0 5.934-2.738 11.237-7.012 14.724 7.042-2.751 13.062-7.872 16.851-14.693l.016-.031-.017-.031c-3.723-6.702-9.743-11.914-16.836-14.699zm-19.002 5.73c-1.103 0-2 .897-2 2s.897 2 2 2zm-4-3.877c0-.029.004-.057.004-.085-3.794 3.209-6.004 7.902-6.004 12.962 0 4.201 1.539 8.043 4.073 11.013.489-4.599 3.675-8.487 8.146-9.835l.29-.868c-1.215-.705-2.119-1.89-2.408-3.31h-.101c-2.206 0-4-1.794-4-4 0-.815.248-1.573.668-2.206l-.425-1.701c-.161-.642-.243-1.305-.243-1.97zm18 7.877c1.103 0 2-.897 2-2s-.897-2-2-2zm-2.51 5.31.29.868c4.472 1.348 7.657 5.235 8.146 9.835 2.535-2.97 4.074-6.812 4.074-11.013 0-5.061-2.21-9.754-6.004-12.963 0 .029.004.057.004.086 0 .665-.082 1.328-.243 1.971l-.425 1.7c.42.633.668 1.391.668 2.206 0 2.206-1.794 4-4 4h-.101c-.289 1.419-1.193 2.604-2.409 3.31zm-7.083.63-.184.553 2.777 1.389 2.777-1.388-.184-.553c-.197.023-.39.059-.593.059h-4c-.203 0-.396-.036-.593-.06zm7.121 4.611.855-2.012c-.412-.186-.843-.34-1.286-.469l-2.02 1.01zm-9.911-2.012.855 2.012 2.452-1.471-2.02-1.01c-.444.128-.875.282-1.287.469zm-5.617 8.707v.692c1.783 1.518 3.88 2.674 6.182 3.356l2.746-8.239-.584-1.296-2.816 1.689-1.65-3.887c-2.382 1.762-3.878 4.575-3.878 7.685zm11.354-5.246.575-1.277-.929-.557-.929.557.575 1.277zm1.718 1.055 2.746 8.239c2.302-.682 4.399-1.838 6.182-3.356v-.692c0-3.11-1.496-5.923-3.878-7.684l-1.65 3.887-2.816-1.689zm2.928-17.15-5.119-.512c-1.625-.163-3.017-1.021-3.894-2.265-.612.359-.987 1.009-.987 1.726v6.146c0 1.654 1.346 3 3 3h4c1.654 0 3-1.346 3-3zm-5 26.095c.976 0 1.928-.101 2.859-.26l-2.579-7.74h-.56l-2.58 7.74c.932.159 1.884.26 2.86.26zm-9-29.877c0 .501.062 1.001.183 1.484l.187.748c.499-.224 1.048-.355 1.63-.355h.1c.249-1.15.983-2.14 2.056-2.696-.102-.418-.156-.855-.156-1.304h2c0 1.765 1.324 3.228 3.08 3.403l5.972.597h.948c.582 0 1.131.131 1.631.356l.187-.747c.12-.485.182-.985.182-1.486 0-3.376-2.747-6.123-6.123-6.123h-5.754c-3.376 0-6.123 2.747-6.123 6.123zm-2.988 27.601c-4.274-3.487-7.012-8.79-7.012-14.724 0-5.785 2.582-11.14 7.001-14.731-7.095 2.784-13.116 7.997-16.84 14.7l-.016.031.017.031c3.789 6.821 9.808 11.942 16.85 14.693zm40.99 24.276-.002-14h-10v14zm-50.002-4h-6v2h6zm0-4h-6v2h6zm0-4h-6v2h6zm43.845 6.431-1.138-1.138-1.414 1.414 2.862 2.862 4.677-7.015-1.664-1.109z" fill="url(#SVGID_1_)"/></svg>