<?xml version="1.0"?>
<svg xmlns="http://www.w3.org/2000/svg" xmlns:xlink="http://www.w3.org/1999/xlink" xmlns:svgjs="http://svgjs.com/svgjs" version="1.1" width="512" height="512" x="0" y="0" viewBox="0 0 64 64" style="enable-background:new 0 0 512 512" xml:space="preserve" class=""><g><g xmlns="http://www.w3.org/2000/svg"><path d="m25 23c0-5.514-4.486-10-10-10s-10 4.486-10 10 4.486 10 10 10 10-4.486 10-10zm-18 0c0-4.411 3.589-8 8-8s8 3.589 8 8c0 .451-.047.89-.118 1.32l-3.897-1.17c.002-.05.015-.098.015-.15 0-2.206-1.794-4-4-4s-4 1.794-4 4 1.794 4 4 4c1.447 0 2.705-.78 3.408-1.934l3.902 1.171c-1.247 2.802-4.052 4.763-7.31 4.763-4.411 0-8-3.589-8-8zm10 0c0 1.103-.897 2-2 2s-2-.897-2-2 .897-2 2-2 2 .897 2 2z" fill="#8958a9" data-original="#000000" style="" class=""/><path d="m15 5h2v2h-2z" fill="#8958a9" data-original="#000000" style="" class=""/><path d="m19 5h2v2h-2z" fill="#8958a9" data-original="#000000" style="" class=""/><path d="m11 5h2v2h-2z" fill="#8958a9" data-original="#000000" style="" class=""/><path d="m51 25c2.206 0 4-1.794 4-4s-1.794-4-4-4-4 1.794-4 4 1.794 4 4 4zm0-6c1.103 0 2 .897 2 2s-.897 2-2 2-2-.897-2-2 .897-2 2-2z" fill="#8958a9" data-original="#000000" style="" class=""/><path d="m60 1h-50c-1.654 0-3 1.346-3 3v7.527c-3.622 2.533-6 6.728-6 11.473 0 5.804 3.551 10.793 8.594 12.912l.524.88c.567.954.872 2.043.881 3.151l-1.96 16.665c-.026.223-.039.446-.039.669 0 3.156 2.567 5.723 5.723 5.723h.554c3.156 0 5.723-2.567 5.723-5.723 0-.224-.013-.446-.039-.67l-1.13-9.607h40.169c1.654 0 3-1.346 3-3v-40c0-1.654-1.346-3-3-3zm-50 2h50c.551 0 1 .448 1 1v5h-52v-5c0-.552.449-1 1-1zm-7 20c0-6.617 5.383-12 12-12s12 5.383 12 12-5.383 12-12 12-12-5.383-12-12zm12 14c.915 0 1.807-.094 2.673-.263-.31.721-.51 1.484-.605 2.263h-4.135c-.095-.779-.296-1.541-.605-2.263.865.169 1.758.263 2.672.263zm.277 24h-.554c-2.053 0-3.723-1.67-3.723-3.723 0-.146.008-.292.025-.436l1.864-15.841h4.228l1.857 15.841c.018.144.026.291.026.436 0 2.053-1.67 3.723-3.723 3.723zm11.723-16h-4v-6h4zm10 0h-4v-8h4zm10 0h-4v-10h4zm10 0h-4v-12h4zm3 0h-1v-14h-8v14h-2v-12h-8v12h-2v-10h-8v10h-2v-8h-8v8h-1.405l-.595-5.057c.01-1.108.314-2.197.881-3.15l.524-.881c3.522-1.48 6.302-4.366 7.667-7.946l2.942.882c-.001.052-.014.1-.014.152 0 2.206 1.794 4 4 4s4-1.794 4-4c0-.287-.033-.566-.091-.836l5.443-2.721c1.436 2.143 3.88 3.557 6.648 3.557 4.411 0 8-3.589 8-8s-3.589-8-8-8-8 3.589-8 8c0 .93.168 1.82.461 2.651l-5.461 2.731c-.734-.84-1.8-1.382-3-1.382-1.447 0-2.705.779-3.408 1.933l-2.938-.881c.221-.984.346-2.003.346-3.052 0-5.096-2.745-9.551-6.826-12h38.826v33c0 .552-.449 1-1 1zm-27-16c0-1.103.897-2 2-2s2 .897 2 2-.897 2-2 2-2-.897-2-2zm12-8c0-3.309 2.691-6 6-6s6 2.691 6 6-2.691 6-6 6-6-2.691-6-6z" fill="#8958a9" data-original="#000000" style="" class=""/><path d="m31 13h10v2h-10z" fill="#8958a9" data-original="#000000" style="" class=""/><path d="m31 17h10v2h-10z" fill="#8958a9" data-original="#000000" style="" class=""/><path d="m39 21h2v2h-2z" fill="#8958a9" data-original="#000000" style="" class=""/><path d="m35 21h2v2h-2z" fill="#8958a9" data-original="#000000" style="" class=""/><path d="m31 21h2v2h-2z" fill="#8958a9" data-original="#000000" style="" class=""/></g></g></svg>
