<?xml version="1.0"?>
<svg xmlns="http://www.w3.org/2000/svg" xmlns:xlink="http://www.w3.org/1999/xlink" version="1.1" id="Capa_1" x="0px" y="0px" viewBox="0 0 512 512" style="enable-background:new 0 0 512 512;" xml:space="preserve" width="512" height="512"><g><g>
	<g>
		<path d="M504.5,0H7.5C3.358,0,0,3.358,0,7.5v497c0,4.142,3.358,7.5,7.5,7.5h497c4.143,0,7.5-3.358,7.5-7.5V7.5    C512,3.358,508.643,0,504.5,0z M497,497H15V15h482V497z" data-original="#000000" class="active-path" style="fill:#491C66" data-old_color="#000000"/>
	</g>
</g><g>
	<g>
		<path d="M474.5,30h-437c-4.142,0-7.5,3.358-7.5,7.5v45c0,4.142,3.358,7.5,7.5,7.5c4.142,0,7.5-3.358,7.5-7.5V45h422v422H45V112.5    c0-4.142-3.358-7.5-7.5-7.5c-4.142,0-7.5,3.358-7.5,7.5v362c0,4.142,3.358,7.5,7.5,7.5h437c4.143,0,7.5-3.358,7.5-7.5v-437    C482,33.358,478.643,30,474.5,30z" data-original="#000000" class="active-path" style="fill:#491C66" data-old_color="#000000"/>
	</g>
</g><g>
	<g>
		<path d="M333,190c0-42.458-34.542-77-77-77s-77,34.542-77,77c0,15.164,12.336,27.5,27.5,27.5S234,205.164,234,190    c0-12.131,9.869-22,22-22s22,9.869,22,22v16.5c0,12.131-9.869,22-22,22c-15.164,0-27.5,12.336-27.5,27.5s12.336,27.5,27.5,27.5    c12.131,0,22,9.869,22,22V322c0,12.131-9.869,22-22,22c-12.131,0-22-9.869-22-22c0-15.164-12.336-27.5-27.5-27.5    S179,306.836,179,322c0,42.458,34.542,77,77,77s77-34.542,77-77v-16.5c0-18.323-6.36-35.645-18.049-49.5    C326.64,242.145,333,224.823,333,206.5V190z M318,206.5c0,16.712-6.578,32.394-18.523,44.156c-1.432,1.41-2.237,3.335-2.237,5.344    s0.806,3.934,2.237,5.344C311.422,273.106,318,288.788,318,305.5V322c0,34.187-27.813,62-62,62s-62-27.813-62-62    c0-6.893,5.607-12.5,12.5-12.5S219,315.107,219,322c0,20.402,16.598,37,37,37c20.402,0,37-16.598,37-37v-16.5    c0-20.402-16.598-37-37-37c-6.893,0-12.5-5.607-12.5-12.5s5.607-12.5,12.5-12.5c20.402,0,37-16.598,37-37V190    c0-20.402-16.598-37-37-37c-20.402,0-37,16.598-37,37c0,6.893-5.607,12.5-12.5,12.5S194,196.893,194,190c0-34.187,27.813-62,62-62    s62,27.813,62,62V206.5z" data-original="#000000" class="active-path" style="fill:#491C66" data-old_color="#000000"/>
	</g>
</g></g> </svg>
