<?xml version="1.0"?>
<svg xmlns="http://www.w3.org/2000/svg" xmlns:xlink="http://www.w3.org/1999/xlink" version="1.1" id="Capa_1" x="0px" y="0px" viewBox="0 0 512 512" style="enable-background:new 0 0 512 512;" xml:space="preserve" width="512" height="512"><g><g>
	<g>
		<path d="M504.5,0H7.5C3.358,0,0,3.358,0,7.5v497c0,4.142,3.358,7.5,7.5,7.5h497c4.142,0,7.5-3.358,7.5-7.5V7.5    C512,3.358,508.642,0,504.5,0z M497,497H15V15h482V497z" data-original="#000000" class="active-path" style="fill:#491C66" data-old_color="#000000"/>
	</g>
</g><g>
	<g>
		<path d="M474.5,30h-437c-4.142,0-7.5,3.358-7.5,7.5v45c0,4.142,3.358,7.5,7.5,7.5c4.142,0,7.5-3.358,7.5-7.5V45h422v422H45V112.5    c0-4.142-3.358-7.5-7.5-7.5c-4.142,0-7.5,3.358-7.5,7.5v362c0,4.142,3.358,7.5,7.5,7.5h437c4.142,0,7.5-3.358,7.5-7.5v-437    C482,33.358,478.642,30,474.5,30z" data-original="#000000" class="active-path" style="fill:#491C66" data-old_color="#000000"/>
	</g>
</g><g>
	<g>
		<path d="M305.5,344h-50.876l67.729-114.938C329.318,217.246,333,203.738,333,190c0-42.458-34.542-77-77-77s-77,34.542-77,77    c0,15.164,12.336,27.5,27.5,27.5S234,205.164,234,190c0-12.131,9.869-22,22-22s22,9.869,22,22c0,3.922-1.048,7.772-3.03,11.136    l-92.162,156.403c-4.998,8.481-5.068,19.059-0.184,27.605C187.507,393.691,196.656,399,206.5,399h99    c15.164,0,27.5-12.336,27.5-27.5S320.664,344,305.5,344z M305.5,384.001h-99c-4.474,0-8.633-2.414-10.853-6.298    c-2.22-3.885-2.188-8.692,0.083-12.547l92.162-156.402C291.234,203.083,293,196.599,293,190c0-20.402-16.598-37-37-37    c-20.402,0-37,16.598-37,37c0,6.893-5.607,12.5-12.5,12.5S194,196.893,194,190c0-34.187,27.813-62,62-62s62,27.813,62,62    c0,11.061-2.963,21.935-8.57,31.446l-74.392,126.247c-1.367,2.319-1.386,5.192-0.05,7.529c1.336,2.337,3.82,3.779,6.512,3.779h64    c6.893,0,12.5,5.607,12.5,12.5S312.393,384.001,305.5,384.001z" data-original="#000000" class="active-path" style="fill:#491C66" data-old_color="#000000"/>
	</g>
</g></g> </svg>
